<svg xmlns="http://www.w3.org/2000/svg" width="120" height="120" viewBox="0 0 120 120">
  <g id="Grupo_107580" data-name="Grupo 107580" transform="translate(2301 1479)">
    <rect id="Rectángulo_36883" data-name="Rectángulo 36883" width="120" height="120" transform="translate(-2301 -1479)" fill="none"/>
    <g id="mapa-mental" transform="translate(-2297 -1475)">
      <rect id="Rectángulo_37033" data-name="Rectángulo 37033" width="31.821" height="21.214" rx="2" transform="translate(2.768 88.018)" fill="#4752e3"/>
      <rect id="Rectángulo_37034" data-name="Rectángulo 37034" width="31.821" height="21.214" rx="2" transform="translate(77.607 88.018)" fill="#4752e3"/>
      <path id="Trazado_157049" data-name="Trazado 157049" d="M47.548,50A3.548,3.548,0,0,0,44,53.548V65.968H67.065a3.548,3.548,0,0,0,3.548-3.548V50Z" transform="translate(33.29 37.935)" fill="#838cfc"/>
      <path id="Trazado_157050" data-name="Trazado 157050" d="M5.548,50A3.548,3.548,0,0,0,2,53.548V65.968H25.065a3.548,3.548,0,0,0,3.548-3.548V50Z" transform="translate(0.774 37.935)" fill="#838cfc"/>
      <rect id="Rectángulo_37035" data-name="Rectángulo 37035" width="21.214" height="21.214" rx="2" transform="translate(45.196 88.018)" fill="#96e83c"/>
      <path id="Trazado_157051" data-name="Trazado 157051" d="M29.548,50A3.548,3.548,0,0,0,26,53.548V65.968H38.419a3.548,3.548,0,0,0,3.548-3.548V50Z" transform="translate(19.355 37.935)" fill="#b1e874"/>
      <rect id="Rectángulo_37036" data-name="Rectángulo 37036" width="53.036" height="31.821" rx="2" transform="translate(29.286 40.286)" fill="#f85316"/>
      <path id="Trazado_157052" data-name="Trazado 157052" d="M64.9,47.839V23H20.548A3.548,3.548,0,0,0,17,26.548v21.29Z" transform="translate(12.387 17.032)" fill="#ff642b"/>
      <path id="Trazado_157053" data-name="Trazado 157053" d="M23,27H49.613v3.548H23Z" transform="translate(17.032 20.129)" fill="#12263f"/>
      <path id="Trazado_157054" data-name="Trazado 157054" d="M40,27h7.1v3.548H40Z" transform="translate(30.194 20.129)" fill="#12263f"/>
      <path id="Trazado_157055" data-name="Trazado 157055" d="M20,31H62.581v3.548H20Z" transform="translate(14.71 23.226)" fill="#12263f"/>
      <path id="Trazado_157056" data-name="Trazado 157056" d="M20,35H62.581v3.548H20Z" transform="translate(14.71 26.323)" fill="#12263f"/>
      <rect id="Rectángulo_37037" data-name="Rectángulo 37037" width="31.821" height="21.214" rx="2" transform="translate(2.768 2.571)" fill="#4752e3"/>
      <rect id="Rectángulo_37038" data-name="Rectángulo 37038" width="31.821" height="21.214" rx="2" transform="translate(77.607 2.571)" fill="#4752e3"/>
      <path id="Trazado_157057" data-name="Trazado 157057" d="M47.548,2A3.548,3.548,0,0,0,44,5.548V17.968H67.065a3.548,3.548,0,0,0,3.548-3.548V2Z" transform="translate(33.29 0.774)" fill="#838cfc"/>
      <path id="Trazado_157058" data-name="Trazado 157058" d="M5.548,2A3.548,3.548,0,0,0,2,5.548V17.968H25.065a3.548,3.548,0,0,0,3.548-3.548V2Z" transform="translate(0.774 0.774)" fill="#838cfc"/>
      <rect id="Rectángulo_37039" data-name="Rectángulo 37039" width="21.214" height="21.214" rx="2" transform="translate(45.196 2.571)" fill="#96e83c"/>
      <path id="Trazado_157059" data-name="Trazado 157059" d="M29.548,2A3.548,3.548,0,0,0,26,5.548V17.968H38.419a3.548,3.548,0,0,0,3.548-3.548V2Z" transform="translate(19.355 0.774)" fill="#b1e874"/>
      <g id="Grupo_107529" data-name="Grupo 107529" transform="translate(16.968 24.065)">
        <path id="Trazado_157060" data-name="Trazado 157060" d="M31,14h3.548V29.968H31Z" transform="translate(6.258 -14)" fill="#c8cded"/>
        <path id="Trazado_157061" data-name="Trazado 157061" d="M54.1,40.613H47V37.065h7.1a1.774,1.774,0,0,0,1.774-1.774V14h3.548V35.29A5.323,5.323,0,0,1,54.1,40.613Z" transform="translate(18.645 -14)" fill="#c8cded"/>
        <path id="Trazado_157062" data-name="Trazado 157062" d="M22.419,40.613h-7.1A5.323,5.323,0,0,1,10,35.29V14h3.548V35.29a1.774,1.774,0,0,0,1.774,1.774h7.1Z" transform="translate(-10 -14)" fill="#c8cded"/>
        <path id="Trazado_157063" data-name="Trazado 157063" d="M31,41h3.548V56.968H31Z" transform="translate(6.258 6.903)" fill="#c8cded"/>
        <path id="Trazado_157064" data-name="Trazado 157064" d="M59.419,61.613H55.871V40.323A1.774,1.774,0,0,0,54.1,38.548H47V35h7.1a5.323,5.323,0,0,1,5.323,5.323Z" transform="translate(18.645 2.258)" fill="#c8cded"/>
        <path id="Trazado_157065" data-name="Trazado 157065" d="M13.548,61.613H10V40.323A5.323,5.323,0,0,1,15.323,35h7.1v3.548h-7.1a1.774,1.774,0,0,0-1.774,1.774Z" transform="translate(-10 2.258)" fill="#c8cded"/>
      </g>
      <path id="Trazado_157070" data-name="Trazado 157070" d="M89.71,50.677a5.323,5.323,0,0,0,5.323-5.323V25.839h10.645A5.323,5.323,0,0,0,111,20.516V6.323A5.323,5.323,0,0,0,105.677,1H80.839a5.323,5.323,0,0,0-5.323,5.323V20.516a5.323,5.323,0,0,0,5.323,5.323H91.484V45.355a1.774,1.774,0,0,1-1.774,1.774H84.387V43.581a5.323,5.323,0,0,0-5.323-5.323H57.774V25.839H63.1a5.323,5.323,0,0,0,5.323-5.323V6.323A5.323,5.323,0,0,0,63.1,1H48.9a5.323,5.323,0,0,0-5.323,5.323V20.516A5.323,5.323,0,0,0,48.9,25.839h5.323V38.258H32.935a5.323,5.323,0,0,0-5.323,5.323v3.548H22.29a1.774,1.774,0,0,1-1.774-1.774V25.839H31.161a5.323,5.323,0,0,0,5.323-5.323V6.323A5.323,5.323,0,0,0,31.161,1H6.323A5.323,5.323,0,0,0,1,6.323V20.516a5.323,5.323,0,0,0,5.323,5.323H16.968V45.355a5.323,5.323,0,0,0,5.323,5.323h5.323V61.323H22.29a5.323,5.323,0,0,0-5.323,5.323V86.161H6.323A5.323,5.323,0,0,0,1,91.484v14.194A5.323,5.323,0,0,0,6.323,111H31.161a5.323,5.323,0,0,0,5.323-5.323V91.484a5.323,5.323,0,0,0-5.323-5.323H20.516V66.645a1.774,1.774,0,0,1,1.774-1.774h5.323v3.548a5.323,5.323,0,0,0,5.323,5.323h21.29V86.161H48.9a5.323,5.323,0,0,0-5.323,5.323v14.194A5.323,5.323,0,0,0,48.9,111H63.1a5.323,5.323,0,0,0,5.323-5.323V91.484A5.323,5.323,0,0,0,63.1,86.161H57.774V73.742h21.29a5.323,5.323,0,0,0,5.323-5.323V64.871H89.71a1.774,1.774,0,0,1,1.774,1.774V86.161H80.839a5.323,5.323,0,0,0-5.323,5.323v14.194A5.323,5.323,0,0,0,80.839,111h24.839A5.323,5.323,0,0,0,111,105.677V91.484a5.323,5.323,0,0,0-5.323-5.323H95.032V66.645a5.323,5.323,0,0,0-5.323-5.323H84.387V50.677ZM79.065,20.516V6.323a1.774,1.774,0,0,1,1.774-1.774h24.839a1.774,1.774,0,0,1,1.774,1.774V20.516a1.774,1.774,0,0,1-1.774,1.774H80.839A1.774,1.774,0,0,1,79.065,20.516Zm-31.935,0V6.323A1.774,1.774,0,0,1,48.9,4.548H63.1a1.774,1.774,0,0,1,1.774,1.774V20.516A1.774,1.774,0,0,1,63.1,22.29H48.9A1.774,1.774,0,0,1,47.129,20.516Zm-42.581,0V6.323A1.774,1.774,0,0,1,6.323,4.548H31.161a1.774,1.774,0,0,1,1.774,1.774V20.516a1.774,1.774,0,0,1-1.774,1.774H6.323A1.774,1.774,0,0,1,4.548,20.516ZM32.935,91.484v14.194a1.774,1.774,0,0,1-1.774,1.774H6.323a1.774,1.774,0,0,1-1.774-1.774V91.484A1.774,1.774,0,0,1,6.323,89.71H31.161A1.774,1.774,0,0,1,32.935,91.484Zm31.935,0v14.194a1.774,1.774,0,0,1-1.774,1.774H48.9a1.774,1.774,0,0,1-1.774-1.774V91.484A1.774,1.774,0,0,1,48.9,89.71H63.1A1.774,1.774,0,0,1,64.871,91.484Zm42.581,0v14.194a1.774,1.774,0,0,1-1.774,1.774H80.839a1.774,1.774,0,0,1-1.774-1.774V91.484a1.774,1.774,0,0,1,1.774-1.774h24.839A1.774,1.774,0,0,1,107.452,91.484ZM80.839,68.419a1.774,1.774,0,0,1-1.774,1.774H32.935a1.774,1.774,0,0,1-1.774-1.774V43.581a1.774,1.774,0,0,1,1.774-1.774H79.065a1.774,1.774,0,0,1,1.774,1.774Z" transform="translate(0)" fill="#12263f"/>
    </g>
  </g>
</svg>
