<svg xmlns="http://www.w3.org/2000/svg" width="120" height="120" viewBox="0 0 120 120">
  <g id="Grupo_107581" data-name="Grupo 107581" transform="translate(2301 1145)">
    <rect id="Rectángulo_36890" data-name="Rectángulo 36890" width="120" height="120" transform="translate(-2301 -1145)" fill="none"/>
    <g id="diagrama-de-flujo" transform="translate(-2297.279 -1141)">
      <g id="Grupo_107575" data-name="Grupo 107575" transform="translate(3.332 2.774)">
        <g id="Grupo_107567" data-name="Grupo 107567" transform="translate(44.355 92.258)">
          <path id="Trazado_157101" data-name="Trazado 157101" d="M58.935,57.548v7.1a3.559,3.559,0,0,1-3.548,3.548H30.548A3.559,3.559,0,0,1,27,64.645v-7.1A3.559,3.559,0,0,1,30.548,54H55.387A3.559,3.559,0,0,1,58.935,57.548Z" transform="translate(-27 -54)" fill="#96e83c"/>
        </g>
        <g id="Grupo_107568" data-name="Grupo 107568" transform="translate(49.677 37.258)">
          <path id="Trazado_157102" data-name="Trazado 157102" d="M51.29,23V33.645H30V23H51.29Z" transform="translate(-30 -23)" fill="#838cfc"/>
        </g>
        <g id="Grupo_107569" data-name="Grupo 107569" transform="translate(0 33.71)">
          <path id="Trazado_157103" data-name="Trazado 157103" d="M26.839,29.871,14.419,38.742,2,29.871,14.419,21Z" transform="translate(-2 -21)" fill="#f3ff3c"/>
        </g>
        <g id="Grupo_107570" data-name="Grupo 107570" transform="translate(46.129 62.097)">
          <path id="Trazado_157104" data-name="Trazado 157104" d="M56.387,45.871,42.194,54.742,28,45.871,42.194,37Z" transform="translate(-28 -37)" fill="#f3ff3c"/>
        </g>
        <g id="Grupo_107571" data-name="Grupo 107571" transform="translate(46.129)">
          <path id="Trazado_157105" data-name="Trazado 157105" d="M56.387,2V23.29H28V2Z" transform="translate(-28 -2)" fill="#ff642b"/>
        </g>
        <g id="Grupo_107572" data-name="Grupo 107572" transform="translate(8.871 95.806)">
          <circle id="Elipse_5066" data-name="Elipse 5066" cx="3.548" cy="3.548" r="3.548" fill="#f85316"/>
        </g>
        <g id="Grupo_107573" data-name="Grupo 107573" transform="translate(99.355 7.097)">
          <circle id="Elipse_5067" data-name="Elipse 5067" cx="3.548" cy="3.548" r="3.548" fill="#f85316"/>
        </g>
        <g id="Grupo_107574" data-name="Grupo 107574" transform="translate(99.355 67.419)">
          <circle id="Elipse_5068" data-name="Elipse 5068" cx="3.548" cy="3.548" r="3.548" fill="#f85316"/>
        </g>
      </g>
      <g id="Grupo_107576" data-name="Grupo 107576" transform="translate(0.279 1)">
        <path id="Trazado_157106" data-name="Trazado 157106" d="M60.806,93.258H50.161V83.6l15.767-9.854L50.161,63.888V52.452H60.806V38.258H50.161V25.839H64.355V1H32.419V25.839H46.613V38.258H35.968v5.323H20v3.548H35.968v5.323H46.613V63.888L30.846,73.742,46.613,83.6v9.662H35.968a5.329,5.329,0,0,0-5.323,5.323v7.1A5.329,5.329,0,0,0,35.968,111H60.806a5.329,5.329,0,0,0,5.323-5.323v-7.1A5.329,5.329,0,0,0,60.806,93.258ZM35.968,22.29V4.548H60.806V22.29ZM39.516,48.9v-7.1H57.258v7.1ZM37.541,73.742l10.846-6.779,10.846,6.779L48.387,80.521Zm25.039,31.935a1.777,1.777,0,0,1-1.774,1.774H35.968a1.777,1.777,0,0,1-1.774-1.774v-7.1a1.777,1.777,0,0,1,1.774-1.774H60.806a1.777,1.777,0,0,1,1.774,1.774Z" transform="translate(14.989 -1)" fill="#12263f"/>
        <path id="Trazado_157107" data-name="Trazado 157107" d="M27.81,70.738l4.068,4.068H16.319A5.317,5.317,0,0,0,13.1,71.585V34H9.548V71.585a5.31,5.31,0,1,0,6.77,6.77h15.56L27.81,82.423l2.509,2.509,8.351-8.351L30.319,68.23ZM11.323,78.355A1.774,1.774,0,1,1,13.1,76.581,1.777,1.777,0,0,1,11.323,78.355Z" transform="translate(4.15 24.548)" fill="#12263f"/>
        <path id="Trazado_157108" data-name="Trazado 157108" d="M72.159,65.649V15.319a5.31,5.31,0,1,0-6.77-6.77H47.321V12.1H65.389a5.317,5.317,0,0,0,3.222,3.222V65.651a5.317,5.317,0,0,0-3.222,3.222H53.378L57.446,64.8,54.937,62.3l-8.351,8.349L54.937,79l2.509-2.509-4.068-4.068H65.389a5.31,5.31,0,1,0,6.77-6.77Zm-1.774-57.1a1.774,1.774,0,1,1-1.774,1.774A1.777,1.777,0,0,1,70.385,8.548Zm0,63.871a1.774,1.774,0,1,1,1.774-1.774A1.777,1.777,0,0,1,70.385,72.419Z" transform="translate(35.572 2.097)" fill="#12263f"/>
        <path id="Trazado_157109" data-name="Trazado 157109" d="M31.224,30.822,15.752,19.771.279,30.822,15.752,41.874Zm-15.473-6.69,9.366,6.69-9.366,6.69-9.366-6.69Z" transform="translate(-0.279 13.532)" fill="#12263f"/>
        <path id="Trazado_157110" data-name="Trazado 157110" d="M31,5H48.742V8.548H31Z" transform="translate(23.505 2.097)" fill="#12263f"/>
        <path id="Trazado_157111" data-name="Trazado 157111" d="M31,9H41.645v3.548H31Z" transform="translate(23.505 5.194)" fill="#12263f"/>
        <path id="Trazado_157112" data-name="Trazado 157112" d="M39,9h3.548v3.548H39Z" transform="translate(29.699 5.194)" fill="#12263f"/>
        <path id="Trazado_157113" data-name="Trazado 157113" d="M48,57h3.548v3.548H48Z" transform="translate(36.666 42.355)" fill="#12263f"/>
        <path id="Trazado_157114" data-name="Trazado 157114" d="M52,57h3.548v3.548H52Z" transform="translate(39.763 42.355)" fill="#12263f"/>
        <path id="Trazado_157115" data-name="Trazado 157115" d="M56,57h3.548v3.548H56Z" transform="translate(42.86 42.355)" fill="#12263f"/>
        <path id="Trazado_157116" data-name="Trazado 157116" d="M23,9h3.548v3.548H23Z" transform="translate(17.311 5.194)" fill="#12263f"/>
        <path id="Trazado_157117" data-name="Trazado 157117" d="M15,9h3.548v3.548H15Z" transform="translate(11.118 5.194)" fill="#12263f"/>
        <path id="Trazado_157118" data-name="Trazado 157118" d="M19,9h3.548v3.548H19Z" transform="translate(14.215 5.194)" fill="#12263f"/>
      </g>
    </g>
  </g>
</svg>
