<svg xmlns="http://www.w3.org/2000/svg" width="120" height="120" viewBox="0 0 120 120">
  <g id="Grupo_107582" data-name="Grupo 107582" transform="translate(-543 -10221)">
    <rect id="Rectángulo_36881" data-name="Rectángulo 36881" width="120" height="120" transform="translate(543 10221)" fill="none"/>
    <g id="documentos" transform="translate(524.5 10226)">
      <g id="Grupo_107578" data-name="Grupo 107578" transform="translate(32.111 1.611)">
        <path id="Trazado_157119" data-name="Trazado 157119" d="M164.074,92.5h64.668a1.074,1.074,0,0,1,1.074,1.074v86.367a1.074,1.074,0,0,1-1.074,1.074H164.074A1.074,1.074,0,0,1,163,179.941V93.574A1.074,1.074,0,0,1,164.074,92.5Z" transform="translate(-136.145 -74.238)" fill="#f5f5f5"/>
        <path id="Trazado_157120" data-name="Trazado 157120" d="M224.982,92.5v82.607a1.075,1.075,0,0,1-1.074,1.074H163V93.574a1.075,1.075,0,0,1,1.074-1.074Z" transform="translate(-136.145 -74.238)" fill="#e6e6e6"/>
        <path id="Trazado_157121" data-name="Trazado 157121" d="M186.242,50H121.574a1.074,1.074,0,0,0-1.074,1.074v86.367a1.074,1.074,0,0,0,1.074,1.074h64.668a1.074,1.074,0,0,0,1.074-1.074V51.074A1.074,1.074,0,0,0,186.242,50Z" transform="translate(-102.775 -40.869)" fill="#f5f5f5"/>
        <path id="Trazado_157122" data-name="Trazado 157122" d="M182.482,50v82.607a1.075,1.075,0,0,1-1.074,1.074H120.5V51.074A1.075,1.075,0,0,1,121.574,50Z" transform="translate(-102.775 -40.869)" fill="#e6e6e6"/>
        <path id="Trazado_157123" data-name="Trazado 157123" d="M113.41,8.574V94.941a1.075,1.075,0,0,1-1.074,1.074H48.742A10.743,10.743,0,0,1,38,85.273V82.48a1.075,1.075,0,0,1,1.074-1.074H45.52a.208.208,0,0,0,.037,0,1.073,1.073,0,0,0,1.038-1.072V8.574A1.075,1.075,0,0,1,47.668,7.5h64.668A1.075,1.075,0,0,1,113.41,8.574Z" transform="translate(-38 -7.5)" fill="#f5f5f5"/>
        <path id="Trazado_157124" data-name="Trazado 157124" d="M132.551,77.125H114.074A1.074,1.074,0,0,1,113,76.051V57.574a1.074,1.074,0,0,1,1.074-1.074h18.477a1.074,1.074,0,0,1,1.074,1.074V76.051A1.074,1.074,0,0,1,132.551,77.125Z" transform="translate(-96.887 -45.973)" fill="#96e83c"/>
        <g id="Grupo_107577" data-name="Grupo 107577" transform="translate(0 11.709)">
          <path id="Trazado_157125" data-name="Trazado 157125" d="M261.744,135.223H238.111a1.611,1.611,0,0,1,0-3.223h23.633a1.611,1.611,0,0,1,0,3.223Z" transform="translate(-193.853 -116.961)" fill="#2b597f"/>
          <path id="Trazado_157126" data-name="Trazado 157126" d="M195.959,203.223H172.111a1.611,1.611,0,0,1,0-3.223h23.848a1.611,1.611,0,0,1,0,3.223Z" transform="translate(-142.033 -170.352)" fill="#2b597f"/>
          <path id="Trazado_157127" data-name="Trazado 157127" d="M261.744,100.223H238.111a1.611,1.611,0,1,1,0-3.223h23.633a1.611,1.611,0,1,1,0,3.223Z" transform="translate(-193.853 -89.48)" fill="#2b597f"/>
          <path id="Trazado_157128" data-name="Trazado 157128" d="M261.744,65.223H238.111a1.611,1.611,0,0,1,0-3.223h23.633a1.611,1.611,0,0,1,0,3.223Z" transform="translate(-193.853 -62)" fill="#2b597f"/>
          <path id="Trazado_157129" data-name="Trazado 157129" d="M158.889,292.223H107.111a1.611,1.611,0,0,1,0-3.223h51.777a1.611,1.611,0,1,1,0,3.223Z" transform="translate(-90.998 -240.23)" fill="#2b597f"/>
          <path id="Trazado_157130" data-name="Trazado 157130" d="M245.256,247.223H217.111a1.611,1.611,0,0,1,0-3.223h28.145a1.611,1.611,0,0,1,0,3.223Z" transform="translate(-177.365 -204.898)" fill="#2b597f"/>
          <path id="Trazado_157131" data-name="Trazado 157131" d="M122.832,247.223H106.611a1.611,1.611,0,0,1,0-3.223h16.221a1.611,1.611,0,0,1,0,3.223Z" transform="translate(-90.605 -204.898)" fill="#2b597f"/>
          <path id="Trazado_157132" data-name="Trazado 157132" d="M102.836,366.1H48.742A10.742,10.742,0,0,1,38,355.359v-2.793a1.074,1.074,0,0,1,1.074-1.074H45.52a.213.213,0,0,0,.037,0H91.127a1.074,1.074,0,0,1,1.074,1.074v2.8A10.743,10.743,0,0,0,102.836,366.1Z" transform="translate(-38 -289.295)" fill="#3d46c2"/>
        </g>
      </g>
      <g id="Grupo_107579" data-name="Grupo 107579" transform="translate(30.5)">
        <path id="Trazado_157133" data-name="Trazado 157133" d="M125.783,18.262h-7.52v-7.52a1.611,1.611,0,0,0-1.611-1.611h-7.52V1.611A1.611,1.611,0,0,0,107.521,0H40.705a1.611,1.611,0,0,0-1.611,1.611V73.906H32.111A1.611,1.611,0,0,0,30.5,75.518v3.867A12.367,12.367,0,0,0,42.854,91.738h5.371v7.52a1.611,1.611,0,0,0,1.611,1.611h7.52v7.52A1.611,1.611,0,0,0,58.967,110H91.3a1.611,1.611,0,1,0,0-3.223H60.578v-5.908h56.074a1.611,1.611,0,0,0,1.611-1.611V73.906a1.611,1.611,0,1,0-3.223,0v23.74H51.447V91.738h56.074a1.611,1.611,0,0,0,1.611-1.611V12.354h5.908V66.6a1.611,1.611,0,1,0,3.223,0V21.484h5.908v85.293H98.605a1.611,1.611,0,0,0,0,3.223h27.178a1.611,1.611,0,0,0,1.611-1.611V19.873A1.611,1.611,0,0,0,125.783,18.262ZM105.91,88.516H96.994a9.141,9.141,0,0,1-9.131-9.131V75.518a1.611,1.611,0,0,0-1.611-1.611H75.08a1.611,1.611,0,1,0,0,3.223h9.561v2.256a12.324,12.324,0,0,0,4.041,9.131H42.854a9.141,9.141,0,0,1-9.131-9.131V77.129H67.561a1.611,1.611,0,0,0,0-3.223H42.316V3.223H105.91Z" transform="translate(-30.5)" fill="#12263f"/>
        <path id="Trazado_157134" data-name="Trazado 157134" d="M107.111,72.848h20.625a1.611,1.611,0,0,0,1.611-1.611V50.611A1.611,1.611,0,0,0,127.736,49H107.111a1.611,1.611,0,0,0-1.611,1.611V71.236A1.611,1.611,0,0,0,107.111,72.848Zm1.611-20.625h17.4v17.4h-17.4Z" transform="translate(-89.387 -38.473)" fill="#12263f"/>
        <path id="Trazado_157135" data-name="Trazado 157135" d="M261.744,132H238.111a1.611,1.611,0,0,0,0,3.223h23.633a1.611,1.611,0,0,0,0-3.223Z" transform="translate(-192.242 -103.641)" fill="#12263f"/>
        <path id="Trazado_157136" data-name="Trazado 157136" d="M170.5,201.611a1.611,1.611,0,0,0,1.611,1.611h23.848a1.611,1.611,0,0,0,0-3.223H172.111A1.611,1.611,0,0,0,170.5,201.611Z" transform="translate(-140.422 -157.031)" fill="#12263f"/>
        <path id="Trazado_157137" data-name="Trazado 157137" d="M261.744,97H238.111a1.611,1.611,0,1,0,0,3.223h23.633a1.611,1.611,0,1,0,0-3.223Z" transform="translate(-192.242 -76.16)" fill="#12263f"/>
        <path id="Trazado_157138" data-name="Trazado 157138" d="M261.744,62H238.111a1.611,1.611,0,0,0,0,3.223h23.633a1.611,1.611,0,0,0,0-3.223Z" transform="translate(-192.242 -48.68)" fill="#12263f"/>
        <path id="Trazado_157139" data-name="Trazado 157139" d="M158.889,289H107.111a1.611,1.611,0,0,0,0,3.223h51.777a1.611,1.611,0,1,0,0-3.223Z" transform="translate(-89.387 -226.91)" fill="#12263f"/>
        <path id="Trazado_157140" data-name="Trazado 157140" d="M245.256,244H217.111a1.611,1.611,0,0,0,0,3.223h28.145a1.611,1.611,0,0,0,0-3.223Z" transform="translate(-175.754 -191.578)" fill="#12263f"/>
        <path id="Trazado_157141" data-name="Trazado 157141" d="M106.611,247.223h16.221a1.611,1.611,0,0,0,0-3.223H106.611a1.611,1.611,0,0,0,0,3.223Z" transform="translate(-88.994 -191.578)" fill="#12263f"/>
      </g>
    </g>
  </g>
</svg>
