<svg xmlns="http://www.w3.org/2000/svg" width="120" height="120" viewBox="0 0 120 120">
  <g id="Grupo_107586" data-name="Grupo 107586" transform="translate(2301 811)">
    <rect id="Rectángulo_36896" data-name="Rectángulo 36896" width="120" height="120" transform="translate(-2301 -811)" fill="none"/>
    <g id="proceso-de-trabajo" transform="translate(-2296 -806)">
      <g id="Grupo_107584" data-name="Grupo 107584" transform="translate(1.719 1.719)">
        <path id="Trazado_157142" data-name="Trazado 157142" d="M78.778,12.4h0A48.882,48.882,0,0,0,30.148,56.35l12.9-.6A36.218,36.218,0,0,1,78.778,25.133l-.058.02v4.941L91.2,20.014,78.721,8v4.425" transform="translate(-25.39 -8)" fill="#f3ff3c"/>
        <path id="Trazado_157143" data-name="Trazado 157143" d="M124.27,78.576l9.4-7.592a36.169,36.169,0,0,0-45.505,33.264l.44-.021a36.218,36.218,0,0,1,35.727-30.613l-.058.02Z" transform="translate(-70.939 -56.482)" fill="#dce736"/>
        <path id="Trazado_157144" data-name="Trazado 157144" d="M190.8,164.693l-4.087-.614a19.072,19.072,0,0,0-3.006-7.254l2.457-3.326a1.463,1.463,0,0,0-.142-1.9l-2.116-2.116a1.463,1.463,0,0,0-1.9-.142l-3.326,2.457a19.071,19.071,0,0,0-7.254-3.006l-.614-4.087a1.463,1.463,0,0,0-1.446-1.245h-2.992a1.462,1.462,0,0,0-1.446,1.245l-.614,4.087a19.07,19.07,0,0,0-7.254,3.006l-3.326-2.457a1.462,1.462,0,0,0-1.9.142l-2.116,2.116a1.463,1.463,0,0,0-.142,1.9l2.457,3.326a19.071,19.071,0,0,0-3.006,7.254l-4.087.614a1.463,1.463,0,0,0-1.245,1.446v2.992a1.463,1.463,0,0,0,1.245,1.446l4.087.614a19.072,19.072,0,0,0,3.006,7.254l-2.457,3.326a1.463,1.463,0,0,0,.142,1.9l2.116,2.116a1.462,1.462,0,0,0,1.9.142l3.326-2.457a19.071,19.071,0,0,0,7.254,3.006l.614,4.087a1.463,1.463,0,0,0,1.446,1.245h2.992a1.462,1.462,0,0,0,1.446-1.245l.614-4.087a19.069,19.069,0,0,0,7.254-3.006l3.326,2.457a1.462,1.462,0,0,0,1.9-.142l2.116-2.116a1.463,1.463,0,0,0,.142-1.9l-2.457-3.326a19.072,19.072,0,0,0,3.006-7.254l4.087-.614a1.463,1.463,0,0,0,1.245-1.446v-2.992a1.463,1.463,0,0,0-1.245-1.446Zm-22.934,12.62a9.678,9.678,0,1,1,9.678-9.678A9.678,9.678,0,0,1,167.871,177.313Z" transform="translate(-114.539 -114.354)" fill="#b0c0d2"/>
        <path id="Trazado_157145" data-name="Trazado 157145" d="M12.455,210.176c0,.017,0,.033,0,.05A48.883,48.883,0,0,0,56.4,258.856l-.758-12.929a36.156,36.156,0,0,1-30.461-35.7c0-.017,0-.033,0-.05h4.91L20.014,197.7,8,210.176h4.425" transform="translate(-8 -156.944)" fill="#838cfc"/>
        <path id="Trazado_157146" data-name="Trazado 157146" d="M210.176,309.751h.1a36.156,36.156,0,0,0,35.7-30.452l12.941-.879a48.882,48.882,0,0,1-48.64,44.06h-.1v4.406L197.7,314.871l12.476-10.08v4.941Z" transform="translate(-156.944 -220.323)" fill="#96e83c"/>
        <path id="Trazado_157147" data-name="Trazado 157147" d="M230.541,266.934a9.718,9.718,0,0,0-.194-1.934,9.68,9.68,0,0,1-18.969,0,9.679,9.679,0,1,0,19.163,1.934Z" transform="translate(-167.532 -209.785)" fill="#727997"/>
        <path id="Trazado_157148" data-name="Trazado 157148" d="M220.828,318.614a49.1,49.1,0,0,1-9.688-.962l9.588,9.234V322.48h.1a48.881,48.881,0,0,0,48.64-44.06l-.666.691A48.891,48.891,0,0,1,220.828,318.614Z" transform="translate(-167.497 -220.324)" fill="#75b62f"/>
        <path id="Trazado_157149" data-name="Trazado 157149" d="M67.922,299.866a48.9,48.9,0,0,1-39.039-44.1h-.149c0,.017,0,.033,0,.05a48.883,48.883,0,0,0,43.948,48.631Z" transform="translate(-24.279 -202.537)" fill="#4752e3"/>
        <path id="Trazado_157150" data-name="Trazado 157150" d="M322.721,78.292c0-.017,0-.033,0-.05A48.882,48.882,0,0,0,278.664,29.6l7.656,7.373-6.872,5.552a36.156,36.156,0,0,1,30.544,35.715c0,.017,0,.033,0,.05h-5.01l10.08,12.476,12.014-12.476Z" transform="translate(-220.514 -24.961)" fill="#ff642b"/>
        <g id="Grupo_107583" data-name="Grupo 107583" transform="translate(58.935 14.502)">
          <path id="Trazado_157151" data-name="Trazado 157151" d="M286.108,75.5l-3.792,3.064a36.159,36.159,0,0,1,30.492,33.791q.051-.965.052-1.943A36.161,36.161,0,0,0,286.108,75.5Z" transform="translate(-282.316 -75.501)" fill="#d44713"/>
        </g>
      </g>
      <g id="Grupo_107585" data-name="Grupo 107585" transform="translate(0 0)">
        <path id="Trazado_157152" data-name="Trazado 157152" d="M214.883,203.347a11.319,11.319,0,0,0-10.626,15.2,1.615,1.615,0,1,0,3.033-1.109,8.083,8.083,0,1,1,3.429,4.152,1.615,1.615,0,0,0-1.667,2.766,11.313,11.313,0,1,0,5.831-21.007Z" transform="translate(-159.835 -159.659)" fill="#12263f"/>
        <path id="Trazado_157153" data-name="Trazado 157153" d="M185,157.011l-2.994-.45a20.567,20.567,0,0,0-2.393-5.775l1.8-2.436a3.062,3.062,0,0,0-.3-4.008l-2.12-2.12a3.062,3.062,0,0,0-4.008-.3l-2.436,1.8a20.558,20.558,0,0,0-5.774-2.393l-.45-2.994a3.062,3.062,0,0,0-3.046-2.622h-3a3.062,3.062,0,0,0-3.046,2.622l-.45,2.994a20.56,20.56,0,0,0-5.774,2.393l-2.436-1.8a3.061,3.061,0,0,0-4.007.3l-2.119,2.12a3.061,3.061,0,0,0-.3,4.008l1.8,2.436a20.546,20.546,0,0,0-2.393,5.775l-2.993.45a3.061,3.061,0,0,0-2.622,3.046v3a3.061,3.061,0,0,0,2.622,3.046l2.994.45a20.561,20.561,0,0,0,2.393,5.775l-1.8,2.436a3.061,3.061,0,0,0,.3,4.008l2.12,2.12a3.061,3.061,0,0,0,4.008.3l2.436-1.8a20.558,20.558,0,0,0,5.774,2.393l.45,2.994a3.062,3.062,0,0,0,3.046,2.622h3a3.062,3.062,0,0,0,3.046-2.622l.45-2.994a20.558,20.558,0,0,0,5.774-2.393l2.437,1.8a3.062,3.062,0,0,0,4.007-.3l2.12-2.12a3.062,3.062,0,0,0,.3-4.008l-1.8-2.436a20.553,20.553,0,0,0,2.393-5.775L185,166.1a3.061,3.061,0,0,0,2.622-3.046v-3A3.061,3.061,0,0,0,185,157.011Zm-.607,5.915-3.969.6a1.614,1.614,0,0,0-1.347,1.3,17.407,17.407,0,0,1-2.758,6.655,1.614,1.614,0,0,0,.034,1.871l2.385,3.229-1.939,1.938-3.229-2.385a1.616,1.616,0,0,0-1.871-.034,17.407,17.407,0,0,1-6.655,2.758,1.615,1.615,0,0,0-1.3,1.347l-.6,3.969h-2.741l-.6-3.969a1.614,1.614,0,0,0-1.3-1.347,17.407,17.407,0,0,1-6.655-2.758,1.613,1.613,0,0,0-1.871.034l-3.229,2.385-1.939-1.938,2.385-3.229a1.614,1.614,0,0,0,.034-1.871,17.4,17.4,0,0,1-2.758-6.655,1.614,1.614,0,0,0-1.347-1.3l-3.969-.6v-2.741l3.969-.6a1.614,1.614,0,0,0,1.347-1.3,17.406,17.406,0,0,1,2.758-6.655,1.614,1.614,0,0,0-.034-1.871l-2.385-3.229,1.939-1.938,3.229,2.385a1.615,1.615,0,0,0,1.871.034,17.411,17.411,0,0,1,6.655-2.758,1.614,1.614,0,0,0,1.3-1.347l.6-3.969h2.741l.6,3.969a1.615,1.615,0,0,0,1.3,1.347,17.4,17.4,0,0,1,6.655,2.758,1.614,1.614,0,0,0,1.871-.034L176.8,144.6l1.939,1.938-2.385,3.229a1.615,1.615,0,0,0-.034,1.871,17.406,17.406,0,0,1,2.758,6.655,1.614,1.614,0,0,0,1.347,1.3l3.969.6Z" transform="translate(-106.736 -106.556)" fill="#12263f"/>
        <path id="Trazado_157154" data-name="Trazado 157154" d="M109.871,54.418a1.614,1.614,0,0,0-1.486-.983h-2.773A50.589,50.589,0,0,0,60.6,4.716L56.168.448a1.625,1.625,0,0,0-2.734,1.163V4.435a50.23,50.23,0,0,0-27.5,9.191,1.615,1.615,0,0,0,1.861,2.639A47.052,47.052,0,0,1,55.048,7.639a1.614,1.614,0,0,0,1.615-1.615V5.407l8.448,8.136-8.449,6.826v-1.59a1.614,1.614,0,0,0-1.615-1.615A37.847,37.847,0,0,0,18.364,45.717L14.9,41.434a1.625,1.625,0,0,0-2.419-.105L8.694,45.267A47.3,47.3,0,0,1,22.932,20.192a1.615,1.615,0,1,0-2.19-2.373A50.487,50.487,0,0,0,4.777,49.334l-4.33,4.5A1.625,1.625,0,0,0,1.61,56.565H4.483a50.591,50.591,0,0,0,44.9,48.708l4.444,4.28a1.625,1.625,0,0,0,2.734-1.163v-2.821A50.2,50.2,0,0,0,84.51,96.129a1.615,1.615,0,1,0-1.883-2.624,47.032,47.032,0,0,1-27.6,8.855h-.081a1.614,1.614,0,0,0-1.615,1.615v.618l-8.448-8.136,8.448-6.826V91.22a1.615,1.615,0,0,0,1.6,1.615h.11a37.847,37.847,0,0,0,36.659-28.46l3.385,4.189a1.625,1.625,0,0,0,2.419.105l3.917-4.068a47.328,47.328,0,0,1-13.97,24.931,1.615,1.615,0,1,0,2.21,2.354A50.518,50.518,0,0,0,105.33,60.549l4.218-4.38a1.613,1.613,0,0,0,.323-1.751ZM41.433,95.095a1.625,1.625,0,0,0-.105,2.419l3.99,3.843A47.374,47.374,0,0,1,7.688,55.006V54.95a1.614,1.614,0,0,0-1.615-1.615H5.407l8.136-8.449,6.826,8.449h-1.54a1.61,1.61,0,0,0-1.615,1.609V55A37.847,37.847,0,0,0,45.681,91.662ZM77.626,81.226a34.588,34.588,0,0,1-21.063,8.347V86.25a1.626,1.626,0,0,0-2.629-1.256L48.9,89.06a34.616,34.616,0,0,1-28.424-32.5h3.271A1.626,1.626,0,0,0,25,53.935l-4.033-4.991A34.615,34.615,0,0,1,53.433,20.431v3.318a1.626,1.626,0,0,0,2.629,1.256l5.051-4.081A34.616,34.616,0,0,1,89.618,53.435H86.247a1.626,1.626,0,0,0-1.256,2.629L89.1,61.156a34.624,34.624,0,0,1-11.479,20.07ZM96.453,65.113l-6.826-8.449h1.64a1.61,1.61,0,0,0,1.615-1.609V55A37.848,37.848,0,0,0,64.34,18.318l4.223-3.413a1.625,1.625,0,0,0,.105-2.419L64.652,8.619a47.372,47.372,0,0,1,37.755,46.376v.055a1.614,1.614,0,0,0,1.615,1.615h.568Z" transform="translate(0 0)" fill="#12263f"/>
      </g>
    </g>
  </g>
</svg>
